<svg width="1043" height="640" viewBox="0 0 1043 640" fill="none" xmlns="http://www.w3.org/2000/svg">
<g opacity="0.6">
<path d="M1043 496.355H0V496.68H1043V496.355Z" fill="#EBEBEB"/>
<path d="M938.491 517.24H883.776V517.564H938.491V517.24Z" fill="#EBEBEB"/>
<path d="M744.201 513.021H672.798V513.346H744.201V513.021Z" fill="#EBEBEB"/>
<path d="M867.296 505.195H812.142V505.519H867.296V505.195Z" fill="#EBEBEB"/>
<path d="M231.317 507.375H141.222V507.7H231.317V507.375Z" fill="#EBEBEB"/>
<path d="M122.636 507.375H109.432V507.7H122.636V507.375Z" fill="#EBEBEB"/>
<path d="M391.48 512.853H274.246V513.177H391.48V512.853Z" fill="#EBEBEB"/>
<path d="M494.382 438.464H91.5963C88.4409 438.461 85.4166 437.679 83.1873 436.289C80.9581 434.899 79.706 433.016 79.7061 431.053V78.7367C79.7335 76.7845 80.9977 74.9179 83.224 73.5424C85.4503 72.1668 88.4588 71.3933 91.5963 71.39H494.382C497.541 71.39 500.571 72.1709 502.804 73.5608C505.038 74.9507 506.293 76.8359 506.293 78.8016V431.053C506.293 433.019 505.038 434.904 502.804 436.294C500.571 437.684 497.541 438.464 494.382 438.464ZM91.5963 71.6496C88.5792 71.653 85.6876 72.4012 83.5561 73.7299C81.4247 75.0587 80.2275 76.8593 80.2276 78.7367V431.053C80.2275 432.93 81.4247 434.731 83.5561 436.06C85.6876 437.388 88.5792 438.136 91.5963 438.14H494.382C497.401 438.136 500.295 437.389 502.43 436.06C504.564 434.732 505.766 432.931 505.772 431.053V78.7367C505.766 76.8581 504.564 75.0575 502.43 73.7291C500.295 72.4008 497.401 71.653 494.382 71.6496H91.5963Z" fill="#EBEBEB"/>
<path d="M945.605 438.464H542.798C539.641 438.461 536.614 437.679 534.382 436.29C532.149 434.901 530.893 433.017 530.887 431.053V78.7367C530.92 76.7833 532.189 74.9168 534.418 73.5416C536.648 72.1663 539.659 71.3933 542.798 71.39H945.605C948.738 71.3968 951.742 72.1717 953.964 73.5469C956.185 74.9221 957.447 76.7868 957.474 78.7367V431.053C957.474 433.014 956.225 434.895 954 436.284C951.775 437.674 948.756 438.458 945.605 438.464ZM542.798 71.6496C539.779 71.653 536.885 72.4008 534.751 73.7291C532.616 75.0575 531.414 76.8581 531.409 78.7367V431.053C531.414 432.931 532.616 434.732 534.751 436.06C536.885 437.389 539.779 438.136 542.798 438.14H945.605C948.624 438.136 951.517 437.389 953.652 436.06C955.787 434.732 956.989 432.931 956.994 431.053V78.7367C956.989 76.8581 955.787 75.0575 953.652 73.7291C951.517 72.4008 948.624 71.653 945.605 71.6496H542.798Z" fill="#EBEBEB"/>
<path d="M471.728 496.355H532.785V357.262H471.728V496.355Z" fill="#E6E6E6"/>
<path d="M486.142 496.355H471.728V470.862H501.245L486.142 496.355Z" fill="#F0F0F0"/>
<path d="M852.965 496.355H914.023V357.262H852.965V496.355Z" fill="#E6E6E6"/>
<path d="M471.728 483.804L865.523 483.804V357.262H471.728V483.804Z" fill="#F0F0F0"/>
<path d="M482.909 364.738H663.786V467.28H482.909V364.738Z" fill="#E6E6E6"/>
<path d="M673.465 364.738H854.342V467.28H673.465V364.738Z" fill="#E6E6E6"/>
<path d="M701.125 392.463C698.343 392.466 695.622 391.955 693.306 390.994C690.991 390.034 689.186 388.668 688.119 387.069C687.052 385.47 686.772 383.709 687.314 382.011C687.856 380.313 689.195 378.753 691.163 377.529C693.13 376.304 695.638 375.471 698.367 375.134C701.096 374.797 703.925 374.971 706.495 375.635C709.065 376.298 711.26 377.422 712.803 378.862C714.347 380.303 715.168 381.996 715.164 383.728C715.159 386.043 713.678 388.263 711.046 389.901C708.415 391.538 704.847 392.46 701.125 392.463ZM701.125 376.524C698.835 376.521 696.594 376.942 694.688 377.732C692.781 378.522 691.294 379.646 690.415 380.962C689.535 382.278 689.303 383.727 689.747 385.125C690.192 386.523 691.293 387.808 692.911 388.817C694.529 389.826 696.592 390.513 698.838 390.792C701.085 391.071 703.414 390.929 705.53 390.384C707.647 389.84 709.456 388.916 710.729 387.731C712.002 386.546 712.682 385.153 712.682 383.728C712.676 381.82 711.458 379.992 709.292 378.642C707.127 377.292 704.191 376.531 701.125 376.524Z" fill="#FAFAFA"/>
<path d="M636.23 392.463C633.448 392.466 630.726 391.955 628.411 390.994C626.096 390.034 624.291 388.668 623.224 387.069C622.157 385.47 621.877 383.709 622.419 382.011C622.961 380.313 624.3 378.753 626.268 377.529C628.235 376.304 630.742 375.471 633.471 375.134C636.201 374.797 639.029 374.971 641.599 375.635C644.169 376.298 646.365 377.422 647.908 378.862C649.451 380.303 650.273 381.996 650.269 383.728C650.263 386.043 648.782 388.263 646.151 389.901C643.519 391.538 639.952 392.46 636.23 392.463ZM636.23 376.524C633.939 376.521 631.699 376.942 629.792 377.732C627.886 378.522 626.399 379.646 625.519 380.962C624.64 382.278 624.407 383.727 624.852 385.125C625.296 386.523 626.397 387.808 628.015 388.817C629.634 389.826 631.697 390.513 633.943 390.792C636.189 391.071 638.518 390.929 640.635 390.384C642.751 389.84 644.561 388.916 645.834 387.731C647.107 386.546 647.786 385.153 647.786 383.728C647.781 381.82 646.562 379.992 644.397 378.642C642.231 377.292 639.295 376.531 636.23 376.524Z" fill="#FAFAFA"/>
<path d="M851.109 496.355H865.523V470.862H836.006L851.109 496.355Z" fill="#F0F0F0"/>
<path d="M811.141 338.402C814.666 336.26 810.932 333.326 815.668 331.263C820.403 329.199 816.335 326.071 816.523 323.176C816.711 320.282 822.885 319.84 824.658 316.491C825.168 314.863 824.669 313.175 823.261 311.767C822.643 310.988 821.731 310.315 820.604 309.804C819.477 309.293 818.167 308.959 816.787 308.831C815.407 308.704 813.999 308.786 812.681 309.071C811.364 309.356 810.177 309.836 809.222 310.469C809.03 310.601 808.849 310.74 808.68 310.884C805.154 313.804 808.68 316.621 804.695 318.594C800.711 320.567 793.723 320.969 793.952 324.253C794.182 327.537 788.863 327.823 786.005 330.354C784.273 331.925 785.608 334.508 786.881 336.273C787.799 337.514 789.439 338.493 791.47 339.012C796.184 340.193 805.446 341.854 811.141 338.402Z" fill="#EBEBEB"/>
<path d="M818.984 346.164C824.971 344.593 822.635 339.907 830.04 338.791C837.446 337.675 834.88 332.638 837.3 329.16C839.719 325.681 847.73 326.979 852.423 323.41C855.364 321.216 854.509 317.024 853.57 314.142C853.219 313.131 852.342 312.221 851.074 311.552C849.807 310.884 848.221 310.494 846.561 310.443C843.307 310.28 840.05 310.732 837.216 311.741C830.666 314.272 832.71 318.75 826.39 319.983C820.069 321.216 811.162 319.607 808.909 323.695C806.656 327.784 799.918 326.538 794.495 328.796C790.594 330.406 790.74 334.975 791.136 337.441C791.294 338.501 792.031 339.495 793.222 340.258C797.478 342.945 808.471 348.928 818.984 346.164Z" fill="#E0E0E0"/>
<path d="M814.208 327.33C818.129 325.461 822.239 328.186 826.223 325.564C830.207 322.942 834.567 325.889 839.177 326.2C843.787 326.512 845.435 322.761 851.005 322.151C853.661 322.072 856.268 322.619 858.306 323.682C859.45 324.179 860.385 324.84 861.031 325.609C861.676 326.379 862.014 327.234 862.014 328.102C862.014 328.97 861.676 329.825 861.031 330.595C860.385 331.364 859.45 332.025 858.306 332.522L857.555 332.807C852.402 334.547 848.418 332.015 844.726 334.105C841.034 336.195 839.365 340.517 834.171 339.907C828.976 339.297 827.746 342.503 823.323 343.918C820.591 344.762 816.669 343.568 814.041 342.529C812.197 341.787 810.877 340.636 810.348 339.31C809.201 336.273 807.887 330.341 814.208 327.33Z" fill="#EBEBEB"/>
<path d="M771.82 331.224C771.82 331.224 773.051 357.249 820.674 357.249C868.298 357.249 869.528 331.224 869.528 331.224H771.82Z" fill="#F5F5F5"/>
<path d="M914.315 115.405H574.109V233.627H914.315V115.405Z" fill="#E6E6E6"/>
<path d="M911.061 115.405H570.855V233.627H911.061V115.405Z" fill="#F5F5F5"/>
<path d="M897.814 225.372V123.647L584.122 123.647V225.372H897.814Z" fill="white"/>
<path d="M587.543 225.372V123.647H584.08V225.372H587.543Z" fill="#E6E6E6"/>
<path d="M156.2 468.877H429.987L429.987 97.428H156.2L156.2 468.877Z" fill="#E6E6E6"/>
<path d="M145.603 468.877H428.485L428.485 97.428H145.603L145.603 468.877Z" fill="#F0F0F0"/>
<path d="M156.2 475.016H429.987V468.89H156.2V475.016Z" fill="#E6E6E6"/>
<path d="M127.934 475.016H410.817V468.89H127.934V475.016Z" fill="#F0F0F0"/>
<path d="M413.654 459.661L413.654 106.67L160.434 106.67L160.434 459.661H413.654Z" fill="#FAFAFA"/>
<path d="M289.891 459.661L266.132 106.67H225.038L248.797 459.661H289.891Z" fill="white"/>
<path d="M406.77 208.121C407.074 208.121 407.366 208.046 407.581 207.912C407.796 207.778 407.917 207.597 407.917 207.407V112.653C407.88 112.482 407.744 112.325 407.535 112.212C407.326 112.098 407.058 112.036 406.78 112.036C406.503 112.036 406.235 112.098 406.026 112.212C405.817 112.325 405.681 112.482 405.644 112.653V207.407C405.644 207.595 405.762 207.774 405.972 207.908C406.183 208.041 406.469 208.118 406.77 208.121Z" fill="#F0F0F0"/>
<path d="M239.953 459.661L216.214 106.67H200.193L223.932 459.661H239.953Z" fill="white"/>
<path d="M162.312 459.648L162.312 106.657H160.434L160.434 459.648H162.312Z" fill="#E6E6E6"/>
<path opacity="0.5" d="M142.098 118.715H419.328L420.704 110.252H143.454L142.098 118.715Z" fill="#E0E0E0"/>
<path opacity="0.5" d="M142.098 132.617H419.328L420.704 124.167H143.454L142.098 132.617Z" fill="#E0E0E0"/>
<path opacity="0.5" d="M142.098 146.518H419.328L420.704 138.068H143.454L142.098 146.518Z" fill="#E0E0E0"/>
<path opacity="0.5" d="M142.098 160.433H419.328L420.704 151.97H143.454L142.098 160.433Z" fill="#E0E0E0"/>
<path opacity="0.5" d="M142.098 174.334H419.328L420.704 165.871H143.454L142.098 174.334Z" fill="#E0E0E0"/>
<path opacity="0.5" d="M142.098 188.236H419.328L420.704 179.773H143.454L142.098 188.236Z" fill="#E0E0E0"/>
<path d="M521.5 554.973C744.874 554.973 925.955 548.394 925.955 540.28C925.955 532.165 744.874 525.586 521.5 525.586C298.126 525.586 117.045 532.165 117.045 540.28C117.045 548.394 298.126 554.973 521.5 554.973Z" fill="#F5F5F5"/>
</g>
</svg>
