<svg width="28" height="28" viewBox="0 0 28 28" fill="none" xmlns="http://www.w3.org/2000/svg">
<g clip-path="url(#clip0_3_378)">
<path fill-rule="evenodd" clip-rule="evenodd" d="M22.986 10.6142C22.7203 9.95672 22.4059 9.3484 22.0511 8.7858L13.3188 12.3143L14.768 15.9007L19.7579 13.8845C20.0113 15.1303 19.7548 16.3762 19.0385 17.4304L19.9785 19.7568L22.975 18.546C24.0759 16.2234 24.1269 13.4378 22.986 10.6142Z" fill="#FF7A00"/>
<path fill-rule="evenodd" clip-rule="evenodd" d="M17.7464 23.2717C20.2498 22.2602 22.0131 20.5819 22.975 18.5459L19.0385 17.4304C18.433 18.3222 17.5038 19.08 16.2564 19.5841C13.8415 20.5599 11.1385 19.7548 9.5239 17.8579L6.42631 19.1096L7.39698 21.5118C10.147 23.9255 14.1221 24.7362 17.7464 23.2717Z" fill="#FF7A00"/>
<path fill-rule="evenodd" clip-rule="evenodd" d="M9.5239 17.858C9.11368 17.3766 8.76821 16.825 8.52128 16.2139C8.27436 15.6028 8.13961 14.966 8.10025 14.3347L7.12958 11.9325L4.032 13.1842C3.90982 14.6896 4.12378 16.2504 4.72832 17.7465C5.33286 19.2426 6.26327 20.5139 7.39699 21.5118L9.5239 17.858Z" fill="#FF7A00"/>
<path fill-rule="evenodd" clip-rule="evenodd" d="M11.7436 8.41593C13.1049 7.86589 14.5161 7.83984 15.8482 8.37031L17.4329 4.63647C15.2227 3.78918 12.7527 3.7185 10.2536 4.72833C6.62917 6.19285 4.3332 9.53753 4.032 13.1841L8.10025 14.3347C7.94382 11.8486 9.32877 9.39171 11.7436 8.41593Z" fill="#FF7A00"/>
</g>
<defs>
<clipPath id="clip0_3_378">
<rect width="20" height="20" fill="white" transform="translate(0.981873 8.47479) rotate(-22.0024)"/>
</clipPath>
</defs>
</svg>
