<svg width="50" height="74" viewBox="0 0 50 74" fill="none" xmlns="http://www.w3.org/2000/svg">
<path d="M30.02 62.7379H14.7761C13.7155 62.7608 12.6837 62.3917 11.8783 61.7014C11.0729 61.011 10.5504 60.0478 10.4107 58.9963C9.81978 54.168 8.16816 49.5302 5.57425 45.4153C1.66305 39.3259 -0.27285 32.1776 0.0309984 24.9468C0.574437 18.224 3.60219 11.9445 8.52393 7.33281C13.4457 2.72108 19.9086 0.107684 26.6525 0.00215851C29.8647 -0.0418202 33.0507 0.586678 36.0056 1.84728C38.9605 3.10788 41.619 4.97271 43.8103 7.32192C46.0016 9.67113 47.6772 12.4528 48.7294 15.4881C49.7817 18.5234 50.1873 21.7454 49.9203 24.9468C49.1448 32.4114 46.2608 39.5012 41.6054 45.3876C38.4748 49.4289 36.1848 54.056 34.8703 58.9963C34.5887 60.0681 33.9601 61.0165 33.0826 61.6934C32.2051 62.3703 31.1282 62.7376 30.02 62.7379ZM26.6386 1.42954C20.2595 1.52734 14.1445 3.99239 9.48099 8.34601C4.8175 12.6996 1.93845 18.6311 1.40296 24.9884C1.11506 31.9299 2.97321 38.7915 6.72448 44.6392C9.43384 48.9184 11.1569 53.7469 11.7688 58.7745C11.8705 59.4905 12.2314 60.1443 12.7832 60.6118C13.335 61.0792 14.0392 61.3279 14.7622 61.3105H30.0061C30.7881 61.3094 31.5483 61.053 32.1712 60.5802C32.794 60.1075 33.2455 59.4442 33.4568 58.6914C34.8065 53.5753 37.162 48.7793 40.3859 44.5838C44.8833 38.9202 47.6802 32.0961 48.4513 24.9052C48.7194 21.8861 48.3505 18.8442 47.3684 15.9767C46.3863 13.1091 44.8129 10.4798 42.7501 8.25897C40.6873 6.03811 38.1811 4.2752 35.3938 3.08442C32.6064 1.89364 29.6 1.30151 26.5693 1.34638L26.6386 1.42954Z" fill="#FF7A00"/>
<path d="M38.4873 25.8337C37.7113 25.5427 36.464 25.6674 34.8149 28.1619C32.9034 31.3836 31.457 34.8594 30.5189 38.4862C29.9197 38.542 29.3166 38.542 28.7173 38.4862C27.9007 38.4767 27.0958 38.2896 26.3587 37.9378C25.6217 37.5861 24.97 37.078 24.449 36.449C25.7101 34.7029 26.6386 31.7096 26.7356 26.8592C26.8188 22.5909 26.2783 20.5953 24.9756 20.6092C23.1187 20.6092 21.816 25.2794 21.525 28.3974C21.1125 31.1605 21.5983 33.9829 22.9108 36.449C22.1807 37.1987 21.1854 37.6317 20.1391 37.6547C19.5903 37.6832 19.0401 37.6366 18.5039 37.5161C18.2129 32.4163 17.2151 28.8963 15.5105 26.9978C15.0071 26.3978 14.3662 25.9282 13.6424 25.6291C12.9186 25.3299 12.1332 25.2099 11.3531 25.2794C8.58147 25.4457 8.20729 27.3581 8.20729 28.148C8.20729 31.3769 12.6558 36.9063 17.3675 38.4723C17.6585 44.9856 16.8825 54.9358 14.1386 70.1104L14.0416 70.6786H15.2749V70.2629C17.7278 56.765 18.8365 46.2467 18.5593 38.791C19.0725 38.8718 19.5922 38.9043 20.1114 38.8881C21.3935 38.8445 22.6135 38.3259 23.5344 37.4329C24.1548 38.1371 24.9151 38.7041 25.767 39.0979C26.6188 39.4916 27.5434 39.7033 28.4817 39.7196C29.0122 39.7611 29.545 39.7611 30.0754 39.7196C27.1375 50.515 25.7101 64.4702 28.0383 70.6786H29.4241C26.8881 65.0661 28.4263 50.5012 31.4474 39.5671C33.3462 39.1963 35.1026 38.2994 36.5164 36.9788C37.9302 35.6581 38.9444 33.9668 39.4435 32.0976C40.3305 29.1181 39.9147 26.4296 38.4873 25.8337ZM9.38524 28.0787C9.38524 27.4551 9.59312 26.6097 11.2977 26.4989H11.6164C12.1816 26.4891 12.7415 26.6088 13.2532 26.8491C13.7649 27.0893 14.2147 27.4436 14.5682 27.8847C15.7738 29.2705 16.8686 31.959 17.2428 37.1558C13.3902 35.479 9.44068 30.7256 9.45454 28.0787H9.38524ZM23.673 35.3681C23.0645 34.0857 22.7114 32.6972 22.6336 31.28C22.3287 26.6513 24.0887 22.1197 24.7816 21.8425C24.7816 21.8425 25.5161 22.3276 25.433 26.9285C25.5371 29.8352 24.958 32.7258 23.7423 35.3681H23.673ZM38.3349 31.7788C37.9275 33.3266 37.1182 34.7391 35.989 35.8732C34.8597 37.0073 33.4507 37.8227 31.9047 38.2367C32.7859 34.9084 34.1244 31.7183 35.882 28.7578C36.7966 27.3719 37.4895 26.9146 37.8637 26.9146H38.0162C38.5843 27.2333 39.0416 29.2566 38.3349 31.7788Z" fill="#FF7A00"/>
<path d="M30.02 72.6049H13.3902C13.1501 72.6095 12.9117 72.5638 12.6903 72.4706C12.4689 72.3775 12.2695 72.2389 12.105 72.064C11.9405 71.889 11.8145 71.6815 11.7351 71.4548C11.6557 71.2281 11.6247 70.9873 11.6441 70.7479L11.7827 68.7385C11.8269 68.2358 12.0549 67.7669 12.423 67.4218C12.7912 67.0766 13.2737 66.8793 13.7783 66.8676H30.408C30.6488 66.8649 30.8875 66.9125 31.1089 67.0072C31.3303 67.1019 31.5295 67.2418 31.6938 67.4178C31.8581 67.5938 31.9839 67.8022 32.0632 68.0296C32.1425 68.257 32.1734 68.4985 32.1541 68.7385L32.0156 70.7479C31.9711 71.2493 31.7426 71.7165 31.3742 72.0594C31.0057 72.4023 30.5233 72.5966 30.02 72.6049Z" fill="#FF7A00"/>
<path d="M30.0201 73.3533H13.3903C13.0555 73.3589 12.7233 73.2939 12.4152 73.1626C12.1072 73.0313 11.8303 72.8366 11.6026 72.5911C11.3739 72.3452 11.199 72.0542 11.0892 71.7368C10.9794 71.4194 10.9372 71.0826 10.9651 70.7479L11.1037 68.7385C11.1675 68.0664 11.4745 67.4407 11.967 66.9789C12.4594 66.517 13.1035 66.2508 13.7783 66.2302H30.4081C30.7438 66.2271 31.0764 66.2947 31.3843 66.4284C31.6923 66.5621 31.9688 66.759 32.1958 67.0063C32.4249 67.2491 32.6001 67.5375 32.71 67.8528C32.8198 68.168 32.8618 68.5029 32.8333 68.8355L32.6947 70.845C32.6308 71.5171 32.3239 72.1428 31.8314 72.6046C31.339 73.0665 30.6949 73.3327 30.0201 73.3533ZM13.709 67.616C13.383 67.6333 13.0736 67.7651 12.8353 67.9882C12.597 68.2113 12.4451 68.5114 12.4064 68.8355L12.2678 70.845C12.2512 71.1389 12.3507 71.4275 12.545 71.6487C12.6451 71.7528 12.7658 71.835 12.8994 71.8899C13.033 71.9447 13.1766 71.9712 13.321 71.9675H29.9508C30.2768 71.9502 30.5862 71.8184 30.8245 71.5952C31.0628 71.3721 31.2147 71.0721 31.2534 70.7479L31.392 68.7385C31.4007 68.5951 31.3806 68.4513 31.333 68.3157C31.2854 68.18 31.2112 68.0552 31.1148 67.9486C31.0154 67.8426 30.8952 67.7584 30.7616 67.7011C30.628 67.6439 30.4841 67.6149 30.3388 67.616H13.709Z" fill="#FF7A00"/>
</svg>
