<svg width="80" height="80" viewBox="0 0 80 80" fill="none" xmlns="http://www.w3.org/2000/svg">
<path d="M79.4827 43.2686C81.0045 34.1415 79.1422 24.7728 74.2453 16.9216L39.9622 39.7903L47.6184 78.3113C51.0709 77.3975 54.3953 76.0544 57.5136 74.3133C60.6593 72.5629 63.5795 70.4348 66.2093 67.9765C73.2611 61.448 77.9324 52.7527 79.4827 43.2686Z" fill="white"/>
<path d="M73.6056 19.7603C77.4658 26.8422 78.8717 35.0034 77.6036 42.9688C76.1227 52.0086 71.6784 60.2996 64.9699 66.5372C62.4502 68.8646 59.6579 70.8783 56.654 72.5342C54.3072 73.8473 51.8364 74.9253 49.2776 75.7526L42.3011 40.6699L73.6856 19.7203M74.3253 16.8817L39.9622 39.7904L47.6184 78.3114C51.0709 77.3976 54.3953 76.0544 57.5136 74.3133C60.6593 72.5629 63.5795 70.4349 66.2093 67.9765C73.2503 61.437 77.9074 52.7346 79.4427 43.2487C80.9646 34.1216 79.1022 24.7528 74.2053 16.9017L74.3253 16.8817Z" fill="#FF7A00"/>
<path d="M39.9622 39.7904L4.97949 22.9387C7.24939 18.7066 10.2008 14.8772 13.7152 11.6043C30.247 -3.86809 55.6944 -3.86809 70.1073 11.6043C71.6049 13.2465 72.9435 15.027 74.1053 16.9217L39.9622 39.7904Z" fill="#FF7A00"/>
<path d="M39.9623 39.7903L47.6185 78.3113C40.9751 80.1899 33.9453 80.2223 27.285 78.4049C20.6246 76.5874 14.5856 72.989 9.81714 67.9964C-1.19743 56.1623 -3.13647 38.0112 4.97953 22.9386L39.9623 39.7903Z" fill="#FF7A00" fill-opacity="0.38"/>
</svg>
