<svg width="52" height="52" viewBox="0 0 52 52" fill="none" xmlns="http://www.w3.org/2000/svg">
<g clip-path="url(#clip0_3_374)">
<path d="M20.4208 10.5831C25.4453 8.76477 26.0432 8.57372 28.0615 7.94463C29.9278 7.36211 31.0316 7.30887 31.7906 7.32971C32.7958 7.35432 33.5689 7.53053 34.4636 7.94976C35.3584 8.36899 35.9959 8.84752 36.6507 9.60691C37.145 10.1795 37.8179 11.059 38.5647 12.8659C39.3729 14.8193 39.6088 15.401 41.4271 20.4255C43.2454 25.45 43.4365 26.0479 44.0656 28.0663C44.6481 29.9326 44.7013 31.0363 44.6805 31.7953C44.6559 32.8006 44.4797 33.5736 44.0604 34.4683C43.6412 35.3631 43.1627 36.0007 42.4033 36.6554C41.8307 37.1497 40.9512 37.8226 39.1443 38.5694C37.1908 39.3777 36.6091 39.6135 31.5846 41.4318C26.5601 43.2502 25.9622 43.4412 23.9439 44.0703C22.0776 44.6528 20.9739 44.7061 20.2148 44.6852C19.2096 44.6606 18.4366 44.4844 17.5418 44.0652C16.6471 43.6459 16.0095 43.1674 15.3547 42.408C14.8604 41.8354 14.1875 40.9559 13.4407 39.1491C12.6325 37.1956 12.3966 36.6139 10.5783 31.5894C8.76001 26.5649 8.56896 25.967 7.93987 23.9487C7.35735 22.0824 7.30411 20.9786 7.32495 20.2196C7.34957 19.2144 7.52577 18.4413 7.94501 17.5466C8.36424 16.6518 8.84277 16.0143 9.60215 15.3595C10.1748 14.8652 11.0542 14.1923 12.8611 13.4455C14.8119 12.6298 15.4037 12.3987 20.4208 10.5831ZM19.1942 7.1936C14.0875 9.04164 13.4536 9.29639 11.4777 10.1128C9.50928 10.9264 8.25922 11.7419 7.23219 12.6371C6.16578 13.5634 5.35563 14.5912 4.68866 16.0146C4.0217 17.4381 3.76059 18.7231 3.72111 20.1306C3.69052 21.4927 3.86392 22.9751 4.50112 25.0158C5.13561 27.0491 5.34557 27.6992 7.1936 32.8058C9.04164 37.9125 9.29639 38.5464 10.1128 40.5223C10.9264 42.4907 11.7419 43.7408 12.6398 44.7753C13.5661 45.8417 14.5939 46.6518 16.0173 47.3188C17.4408 47.9858 18.7258 48.2469 20.1333 48.2863C21.4954 48.3169 22.9778 48.1435 25.0185 47.5063C27.0592 46.8691 27.7019 46.6619 32.816 44.8112C37.9301 42.9604 38.5566 42.7084 40.5325 41.892C42.5009 41.0783 43.751 40.2629 44.7855 39.365C45.8519 38.4387 46.662 37.4109 47.329 35.9874C47.996 34.564 48.2571 33.2789 48.2965 31.8714C48.3271 30.5094 48.1537 29.027 47.5165 26.9863C46.8793 24.9455 46.6721 24.3028 44.8213 19.1887C42.9706 14.0747 42.7186 13.4482 41.9022 11.4723C41.0885 9.50387 40.2731 8.2538 39.3752 7.21931C38.4489 6.1529 37.4211 5.34275 35.9976 4.67578C34.5742 4.00882 33.2891 3.74772 31.8816 3.70824C30.5196 3.67765 29.0372 3.85105 26.9964 4.48824C24.951 5.13561 24.3008 5.34556 19.1942 7.1936Z" fill="#FF7A00"/>
<path d="M20.4208 10.5831C25.4453 8.76477 26.0432 8.57372 28.0615 7.94463C29.9278 7.36211 31.0316 7.30887 31.7906 7.32971C32.7958 7.35432 33.5689 7.53053 34.4636 7.94976C35.3584 8.36899 35.9959 8.84752 36.6507 9.60691C37.145 10.1795 37.8179 11.059 38.5647 12.8659C39.3729 14.8193 39.6088 15.401 41.4271 20.4255C43.2454 25.45 43.4365 26.0479 44.0656 28.0663C44.6481 29.9326 44.7013 31.0363 44.6805 31.7953C44.6559 32.8006 44.4797 33.5736 44.0604 34.4683C43.6412 35.3631 43.1627 36.0007 42.4033 36.6554C41.8307 37.1497 40.9512 37.8226 39.1443 38.5694C37.1908 39.3777 36.6091 39.6135 31.5846 41.4318C26.5601 43.2502 25.9622 43.4412 23.9439 44.0703C22.0776 44.6528 20.9739 44.7061 20.2148 44.6852C19.2096 44.6606 18.4366 44.4844 17.5418 44.0652C16.6471 43.6459 16.0095 43.1674 15.3547 42.408C14.8604 41.8354 14.1875 40.9559 13.4407 39.1491C12.6325 37.1956 12.3966 36.6139 10.5783 31.5894C8.76001 26.5649 8.56896 25.967 7.93987 23.9487C7.35735 22.0824 7.30411 20.9786 7.32495 20.2196C7.34957 19.2144 7.52577 18.4413 7.94501 17.5466C8.36424 16.6518 8.84277 16.0143 9.60215 15.3595C10.1748 14.8652 11.0542 14.1923 12.8611 13.4455C14.8119 12.6298 15.4037 12.3987 20.4208 10.5831Z" fill="#FF7A00"/>
<path d="M22.5066 16.3467C17.176 18.2758 14.4101 24.1655 16.3419 29.5036C18.2737 34.8417 24.1608 37.6 29.4988 35.6682C34.8369 33.7364 37.5953 27.8494 35.6635 22.5113C33.7317 17.1733 27.8446 14.4149 22.5066 16.3467ZM28.2695 32.2713C24.8054 33.5249 20.9823 31.7337 19.7287 28.2695C18.4751 24.8054 20.2663 20.9824 23.7305 19.7287C27.1946 18.4751 31.0176 20.2663 32.2713 23.7305C33.5249 27.1946 31.7336 31.0176 28.2695 32.2713Z" fill="white"/>
<path d="M33.2235 14.5792C34.4688 14.1286 35.1129 12.7538 34.6623 11.5086C34.2116 10.2634 32.8369 9.61924 31.5917 10.0699C30.3464 10.5205 29.7023 11.8953 30.1529 13.1405C30.6036 14.3857 31.9783 15.0299 33.2235 14.5792Z" fill="white"/>
</g>
<defs>
<clipPath id="clip0_3_374">
<rect width="40" height="40" fill="white" transform="translate(0.387756 13.9995) rotate(-19.8947)"/>
</clipPath>
</defs>
</svg>
