<svg width="50" height="50" viewBox="0 0 50 50" fill="none" xmlns="http://www.w3.org/2000/svg">
<g clip-path="url(#clip0_3_387)">
<path d="M46.2769 9.57601L13.141 1.54853C12.3799 1.36414 11.5767 1.48966 10.9081 1.89746C10.2396 2.30527 9.7604 2.96196 9.57601 3.72307L1.54853 36.859C1.36415 37.6201 1.48966 38.4233 1.89747 39.0919C2.30527 39.7604 2.96196 40.2396 3.72307 40.424L36.859 48.4515C37.6201 48.6359 38.4233 48.5104 39.0919 48.1026C39.7604 47.6947 40.2396 47.0381 40.424 46.2769L48.4515 13.141C48.6359 12.3799 48.5104 11.5767 48.1026 10.9081C47.6947 10.2396 47.0381 9.7604 46.2769 9.57601ZM13.8354 36.7774L7.99057 35.3615L12.4883 16.7957L18.3331 18.2117L13.8354 36.7774ZM16.0299 14.9299C15.3678 14.7656 14.7693 14.4088 14.3098 13.9046C13.8503 13.4003 13.5504 12.7713 13.4481 12.0969C13.3457 11.4224 13.4455 10.7327 13.7347 10.1149C14.0239 9.49707 14.4897 8.97876 15.0732 8.62539C15.6568 8.27202 16.3319 8.09943 17.0134 8.12939C17.6949 8.15935 18.3523 8.39053 18.9026 8.79374C19.4528 9.19696 19.8713 9.75414 20.1052 10.395C20.3391 11.0358 20.378 11.7316 20.2168 12.3944C20.1156 12.8398 19.9256 13.2603 19.6584 13.6307C19.3912 14.0012 19.0521 14.314 18.6614 14.5506C18.2707 14.7872 17.8363 14.9427 17.3842 15.0079C16.9321 15.0731 16.4716 15.0465 16.0299 14.9299ZM35.375 42.0127L29.5328 40.5974L31.99 30.4547C32.7147 27.4634 31.6668 26.2321 30.0254 25.8345C28.2922 25.4146 26.2748 26.3092 25.6247 28.9927L23.1859 39.0598L17.3411 37.6438L21.8394 19.0754L27.4602 20.4371L26.8369 23.0099L26.9125 23.0282C27.7534 22.0229 30.2024 20.5498 33.2179 21.2803C36.4792 22.0704 39.5333 24.8596 38.1599 30.5289L35.375 42.0127Z" fill="#FF7A00"/>
</g>
<defs>
<clipPath id="clip0_3_387">
<rect width="40" height="40" fill="white" transform="translate(10.2712 0.853302) rotate(13.6181)"/>
</clipPath>
</defs>
</svg>
