<svg width="48" height="48" viewBox="0 0 48 48" fill="none" xmlns="http://www.w3.org/2000/svg">
<g clip-path="url(#clip0_3_390)">
<path d="M40.5049 19.5322C40.4416 19.8788 40.3667 20.2063 40.2883 20.5495C37.9262 30.9568 27.5381 41.2208 13.5596 38.0268C9.43677 37.0848 5.67074 34.9277 2.7224 31.825C3.30645 32.0405 3.90119 32.2092 4.50307 32.3467C7.9187 33.1272 11.5149 32.7016 14.7108 31.1176C11.475 30.3126 9.11859 27.4601 8.85969 24.02C9.94979 24.5152 11.1341 24.7366 12.3224 24.6635C8.95038 23.138 7.14522 19.3282 7.9891 15.5656C7.99623 15.5344 8.00336 15.5032 8.01049 15.472C8.92477 16.321 10.0351 16.9358 11.2317 17.242C8.4338 14.1737 8.44696 9.33502 11.2865 6.19257C14.0273 12.0051 19.0343 16.284 25.0685 18.0074C25.0752 15.1368 26.5736 12.4592 28.9867 10.9755C32.7219 8.69417 37.5013 9.95033 39.6668 13.7768C41.4455 13.8222 43.2353 13.5418 44.9352 12.9619C43.9464 14.6562 42.4049 15.9288 40.6004 16.5505C42.1479 16.7071 43.7187 16.6229 45.2456 16.3153C43.8588 17.6725 42.2512 18.7495 40.5049 19.5322Z" fill="#FF7A00"/>
</g>
<defs>
<clipPath id="clip0_3_390">
<rect width="40" height="40" fill="white" transform="translate(8.95752 0.0474854) rotate(12.8706)"/>
</clipPath>
</defs>
</svg>
