<svg width="69" height="67" viewBox="0 0 69 67" fill="none" xmlns="http://www.w3.org/2000/svg">
<path d="M22.3548 66.037C21.5077 66.0378 20.6694 65.8643 19.8922 65.5273C19.1149 65.1903 18.4154 64.697 17.8369 64.0781L2.30655 47.5066C1.72713 46.8847 1.28232 46.1499 0.999906 45.3482C0.717494 44.5465 0.603578 43.6952 0.665288 42.8475C0.730358 41.896 0.987543 40.9677 1.42129 40.1184C1.85503 39.2691 2.45633 38.5165 3.18895 37.906L34.6555 11.4339C47.5033 0.633229 61.3041 -3.09051 66.7397 2.751C72.1753 8.59252 67.5163 22.1639 55.8862 34.2352L27.4021 63.8663C26.7486 64.5472 25.9653 65.09 25.0983 65.4629C24.2314 65.8357 23.2985 66.031 22.3548 66.037ZM59.2922 1.72741C53.0978 1.72741 44.1678 5.73353 35.785 12.7575L4.33607 39.2296C3.78417 39.6863 3.3307 40.2502 3.00309 40.8872C2.67547 41.5243 2.48055 42.2211 2.4301 42.9357C2.38288 43.542 2.462 44.1515 2.66249 44.7257C2.86299 45.2998 3.18049 45.8261 3.59488 46.2712L19.0722 62.9133C19.4908 63.3536 19.9945 63.7043 20.5527 63.9439C21.1109 64.1836 21.712 64.3073 22.3195 64.3075C23.7564 64.2824 25.1257 63.6928 26.1315 62.6663L54.6155 33.0175C65.3985 21.7933 70.1634 9.03373 65.4514 3.96872C64.6376 3.18665 63.6693 2.58329 62.6086 2.19732C61.548 1.81135 60.4184 1.65128 59.2922 1.72741Z" fill="#FF7A00"/>
</svg>
