<svg width="127" height="65" viewBox="0 0 127 65" fill="none" xmlns="http://www.w3.org/2000/svg">
<path opacity="0.2" d="M117.249 34.4012C117.473 31.6548 117.09 28.8944 116.126 26.296C115.161 23.6976 113.635 21.3182 111.645 19.3099C109.655 17.3016 107.245 15.7083 104.569 14.6318C101.893 13.5553 99.0094 13.0192 96.1024 13.0577C93.1421 13.0624 90.2087 13.5908 87.4531 14.6157C85.507 10.231 82.2226 6.49729 78.0211 3.89354C73.8197 1.28979 68.893 -0.0652022 63.8731 0.00241258C57.4796 0.0908043 51.284 2.11699 46.1943 5.78407C41.1046 9.45115 37.3884 14.5663 35.5902 20.3799C29.4775 20.8124 23.7281 23.2967 19.3757 27.3861C15.0233 31.4754 12.3533 36.9017 11.8458 42.6893C11.8458 43.2501 11.8458 43.7798 11.8458 44.3407C8.88172 44.36 6.03123 45.4234 3.84897 47.3239C1.66671 49.2244 0.308781 51.8262 0.0393821 54.6229C-0.0853147 55.9544 0.0868949 57.2959 0.544861 58.5603C1.00283 59.8247 1.73633 60.9837 2.6977 61.9621C3.65907 62.9405 4.82686 63.7165 6.12526 64.2396C7.42366 64.7627 8.82366 65.0213 10.2344 64.9986H109.06C113.589 64.9353 117.931 63.2757 121.239 60.3434C124.547 57.4112 126.583 53.4167 126.95 49.1391C127.215 46.0216 126.415 42.906 124.668 40.2523C122.921 37.5985 120.32 35.5472 117.249 34.4012Z" fill="#FF7A00"/>
</svg>
